# 3ds Max Wavefront OBJ Exporter v0.99 - (c)2007 guruware
# File Created: 25.01.2025 00:53:36

mtllib Darkbubulle Mace.mtl

#
# object Boule
#

v  -4.8821 86.2141 7.1807
v  -4.8821 86.1178 1.2721
v  -9.0601 86.1178 3.0027
v  -10.7907 86.1178 7.1807
v  -9.0601 86.1178 11.3588
v  -4.8821 86.1178 13.0894
v  -0.7040 86.1178 11.3588
v  1.0266 86.1178 7.1807
v  -0.7040 86.1178 3.0027
v  -4.8821 82.0330 -1.1754
v  -10.7907 82.0330 1.2721
v  -14.2702 86.1432 3.2096
v  -14.3175 86.0315 3.1623
v  -14.3954 86.0315 3.3503
v  -14.3285 86.1432 3.3503
v  -13.2382 82.0330 7.1807
v  -10.7907 82.0330 13.0894
v  -8.8532 86.1432 16.5688
v  -8.9005 86.0315 16.6162
v  -8.7125 86.0315 16.6940
v  -8.7125 86.1432 16.6271
v  -4.8821 82.0330 15.5368
v  1.0266 82.0330 13.0894
v  4.5061 86.1432 11.1518
v  4.5534 86.0315 11.1991
v  4.6312 86.0315 11.0111
v  4.5643 86.1432 11.0111
v  3.4740 82.0330 7.1807
v  1.0266 82.0330 1.2721
v  -0.9110 86.1432 -2.2074
v  -0.8637 86.0315 -2.2547
v  -1.0517 86.0315 -2.3326
v  -1.0517 86.1432 -2.2657
v  -4.8821 77.2955 0.1596
v  -9.8467 77.2955 2.2160
v  -15.1327 78.6868 2.8132
v  -15.1051 78.5483 2.8408
v  -15.1796 78.5483 3.0208
v  -15.2187 78.6868 3.0208
v  -11.9032 77.2955 7.1807
v  -9.8467 77.2955 12.1454
v  -9.2496 78.6868 17.4313
v  -9.2220 78.5483 17.4037
v  -9.0420 78.5483 17.4783
v  -9.0420 78.6868 17.5173
v  -4.8821 77.2955 14.2018
v  0.0826 77.2955 12.1454
v  5.3685 78.6868 11.5483
v  5.3409 78.5483 11.5207
v  5.4155 78.5483 11.3406
v  5.4545 78.6868 11.3406
v  2.1390 77.2955 7.1807
v  0.0826 77.2955 2.2160
v  -0.5145 78.6868 -3.0699
v  -0.5421 78.5483 -3.0423
v  -0.7221 78.5483 -3.1168
v  -0.7221 78.6868 -3.1559
v  -4.8821 4.6444 7.1807
v  -6.3404 4.6466 5.7223
v  -4.8821 4.6466 5.1183
v  -6.9445 4.6466 7.1807
v  -6.3404 4.6466 8.6391
v  -4.8821 4.6466 9.2431
v  -3.4237 4.6466 8.6391
v  -2.8196 4.6466 7.1807
v  -3.4237 4.6466 5.7223
v  -6.7211 68.3262 5.3417
v  -8.5730 70.9030 3.4898
v  -4.8821 70.9030 1.9610
v  -4.8821 68.3262 4.5800
v  -7.4828 68.3262 7.1807
v  -10.1018 70.9030 7.1807
v  -6.7211 68.3262 9.0197
v  -8.5730 70.9030 10.8716
v  -4.8821 68.3262 9.7814
v  -4.8821 70.9030 12.4004
v  -3.0431 68.3262 9.0197
v  -1.1912 70.9030 10.8716
v  -1.1912 70.9030 3.4898
v  -3.0431 68.3262 5.3417
v  -4.8821 62.7468 4.5800
v  -6.7211 62.7468 5.3417
v  -3.0431 62.7468 5.3417
v  -2.2813 68.3262 7.1807
v  -2.2813 62.7468 7.1807
v  -3.0431 62.7468 9.0197
v  -4.8821 62.7468 9.7814
v  -6.7211 62.7468 9.0197
v  -7.4828 62.7468 7.1807
v  -4.8821 62.7462 5.1183
v  -6.3404 62.7462 5.7223
v  -3.4237 62.7462 5.7223
v  -2.8196 62.7462 7.1807
v  -3.4237 62.7462 8.6391
v  -4.8821 62.7462 9.2431
v  -6.3404 62.7462 8.6391
v  -6.9445 62.7462 7.1807
v  -1.9899 69.1818 7.1807
v  0.3377 70.9030 7.1807
v  -4.8821 21.3743 5.1183
v  -6.3404 21.3743 5.7223
v  -3.4237 21.3743 5.7223
v  -2.8196 21.3743 7.1807
v  -3.4237 21.3743 8.6391
v  -4.8821 21.3743 9.2431
v  -6.3404 21.3743 8.6391
v  -6.9445 21.3743 7.1807
v  -6.3404 19.6466 5.7223
v  -4.8821 19.6466 5.1183
v  -4.8821 6.2089 5.1183
v  -6.3404 6.2089 5.7223
v  -3.4237 19.6466 5.7223
v  -3.4237 6.2089 5.7223
v  -2.8196 19.6466 7.1807
v  -2.8196 6.2089 7.1807
v  -3.4237 19.6466 8.6391
v  -3.4237 6.2089 8.6391
v  -4.8821 19.6466 9.2431
v  -4.8821 6.2089 9.2431
v  -6.3404 19.6466 8.6391
v  -6.3404 6.2089 8.6391
v  -6.9445 19.6466 7.1807
v  -6.9445 6.2089 7.1807
v  -4.8821 21.3743 4.5392
v  -4.8821 19.6466 4.5392
v  -6.7499 19.6466 5.3129
v  -6.7499 21.3743 5.3129
v  -3.0143 21.3743 5.3129
v  -3.0143 19.6466 5.3129
v  -2.2406 21.3743 7.1807
v  -2.2406 19.6466 7.1807
v  -3.0142 21.3743 9.0485
v  -3.0142 19.6466 9.0485
v  -4.8821 21.3743 9.8222
v  -4.8821 19.6466 9.8222
v  -6.7499 21.3743 9.0485
v  -6.7499 19.6466 9.0485
v  -7.5236 21.3743 7.1807
v  -7.5236 19.6466 7.1807
v  -4.8821 6.2089 4.5392
v  -4.8821 4.6466 4.5392
v  -6.7499 4.6466 5.3129
v  -6.7499 6.2089 5.3129
v  -3.0143 6.2089 5.3129
v  -3.0143 4.6466 5.3129
v  -2.2405 6.2089 7.1807
v  -2.2406 4.6466 7.1807
v  -3.0142 6.2089 9.0485
v  -3.0142 4.6466 9.0485
v  -4.8821 6.2089 9.8222
v  -4.8821 4.6466 9.8222
v  -6.7499 6.2089 9.0485
v  -6.7499 4.6466 9.0485
v  -7.5236 6.2089 7.1807
v  -7.5236 4.6466 7.1807
v  -10.8183 83.2594 3.1126
v  -10.1269 84.8913 3.8040
v  -11.9562 83.2594 5.8598
v  -10.9784 84.8913 5.8598
v  -8.9502 83.2594 13.1169
v  -8.2588 84.8913 12.4255
v  -6.2030 83.2594 14.2548
v  -6.2030 84.8913 13.2771
v  1.0541 83.2594 11.2488
v  0.3627 84.8913 10.5574
v  2.1920 83.2594 8.5016
v  1.2143 84.8913 8.5016
v  -0.8140 83.2594 1.2445
v  -1.5053 84.8913 1.9359
v  -3.5612 83.2594 0.1066
v  -3.5612 84.8913 1.0844
v  -10.6564 78.6521 3.2479
v  -11.0598 80.6764 2.8445
v  -11.7461 78.6521 5.8786
v  -12.3165 80.6764 5.8786
v  -8.8149 78.6521 12.9551
v  -9.2182 80.6764 13.3584
v  -6.1842 78.6521 14.0447
v  -6.1842 80.6764 14.6151
v  0.8923 78.6521 11.1135
v  1.2956 80.6764 11.5169
v  1.9819 78.6521 8.4829
v  2.5523 80.6764 8.4829
v  -0.9492 78.6521 1.4064
v  -0.5459 80.6764 1.0030
v  -3.5799 78.6521 0.3167
v  -3.5799 80.6764 -0.2537
# 187 vertices

vn 0.0000 1.0000 -0.0000
vn 0.0000 0.8146 -0.5801
vn -0.4102 0.8146 -0.4102
vn -0.5801 0.8146 0.0000
vn -0.4102 0.8146 0.4102
vn -0.0000 0.8146 0.5801
vn 0.4102 0.8146 0.4102
vn 0.5801 0.8146 0.0000
vn 0.4102 0.8146 -0.4102
vn -0.0000 0.1211 -0.9926
vn -0.7019 0.1211 -0.7019
vn -0.1484 0.8330 -0.5330
vn -0.5727 -0.0680 -0.8169
vn -0.9826 -0.0680 0.1727
vn -0.4819 0.8330 0.2719
vn -0.9926 0.1211 0.0000
vn -0.7019 0.1211 0.7019
vn -0.5330 0.8330 0.1484
vn -0.8169 -0.0680 0.5727
vn 0.1727 -0.0680 0.9826
vn 0.2719 0.8330 0.4819
vn -0.0000 0.1211 0.9926
vn 0.7019 0.1211 0.7019
vn 0.1484 0.8330 0.5330
vn 0.5727 -0.0680 0.8169
vn 0.9826 -0.0680 -0.1727
vn 0.4819 0.8330 -0.2719
vn 0.9926 0.1211 0.0000
vn 0.7019 0.1211 -0.7019
vn 0.5330 0.8330 -0.1484
vn 0.8169 -0.0680 -0.5727
vn -0.1727 -0.0680 -0.9826
vn -0.2719 0.8330 -0.4819
vn -0.0000 -0.2712 -0.9625
vn -0.6806 -0.2712 -0.6806
vn -0.5674 0.2895 -0.7709
vn -0.3467 -0.6996 -0.6248
vn -0.6869 -0.6996 0.1966
vn -0.9463 0.2895 0.1439
vn -0.9625 -0.2712 0.0000
vn -0.6806 -0.2712 0.6806
vn -0.7709 0.2895 0.5674
vn -0.6248 -0.6996 0.3467
vn 0.1966 -0.6996 0.6869
vn 0.1439 0.2895 0.9463
vn -0.0000 -0.2712 0.9625
vn 0.6806 -0.2712 0.6806
vn 0.5674 0.2895 0.7709
vn 0.3467 -0.6996 0.6248
vn 0.6869 -0.6996 -0.1966
vn 0.9463 0.2895 -0.1439
vn 0.9625 -0.2712 0.0000
vn 0.6806 -0.2712 -0.6806
vn 0.7709 0.2895 -0.5674
vn 0.6248 -0.6996 -0.3467
vn -0.1966 -0.6996 -0.6869
vn -0.1439 0.2895 -0.9463
vn -0.0000 -1.0000 0.0000
vn -0.0003 -1.0000 -0.0003
vn 0.0000 -1.0000 -0.0004
vn -0.0004 -1.0000 0.0000
vn -0.0003 -1.0000 0.0003
vn -0.0000 -1.0000 0.0004
vn 0.0003 -1.0000 0.0003
vn 0.0004 -1.0000 0.0000
vn 0.0003 -1.0000 -0.0003
vn -0.6402 -0.4247 -0.6402
vn -0.6190 -0.4833 -0.6190
vn 0.0000 -0.4833 -0.8754
vn -0.0000 -0.4247 -0.9053
vn -0.9053 -0.4247 0.0000
vn -0.8754 -0.4833 0.0000
vn -0.6402 -0.4247 0.6402
vn -0.6190 -0.4833 0.6190
vn -0.0000 -0.4247 0.9053
vn -0.0000 -0.4833 0.8754
vn 0.6402 -0.4247 0.6402
vn 0.6190 -0.4833 0.6190
vn 0.6190 -0.4833 -0.6190
vn 0.6402 -0.4247 -0.6402
vn 0.0000 -0.6299 -0.7767
vn -0.5492 -0.6299 -0.5492
vn 0.5492 -0.6299 -0.5492
vn 0.9854 -0.1702 0.0000
vn 0.7767 -0.6299 0.0000
vn 0.5492 -0.6299 0.5492
vn -0.0000 -0.6299 0.7767
vn -0.5492 -0.6299 0.5492
vn -0.7767 -0.6299 0.0000
vn 0.0000 -0.8037 -0.5950
vn -0.4207 -0.8037 -0.4207
vn 0.4208 -0.8037 -0.4208
vn 0.5950 -0.8037 0.0000
vn 0.4208 -0.8037 0.4208
vn -0.0000 -0.8037 0.5950
vn -0.4208 -0.8037 0.4208
vn -0.5950 -0.8037 0.0000
vn 1.0000 0.0000 -0.0000
vn 0.8455 -0.5339 0.0000
vn 0.0000 0.8042 -0.5943
vn -0.4203 0.8042 -0.4202
vn 0.4203 0.8042 -0.4203
vn 0.5944 0.8042 0.0000
vn 0.4203 0.8042 0.4203
vn -0.0000 0.8042 0.5944
vn -0.4203 0.8042 0.4203
vn -0.5944 0.8042 0.0000
vn -0.4203 -0.8042 -0.4202
vn -0.0000 -0.8042 -0.5944
vn 0.4203 -0.8042 -0.4203
vn 0.5944 -0.8042 0.0000
vn 0.4203 -0.8042 0.4203
vn -0.0000 -0.8042 0.5944
vn -0.4203 -0.8042 0.4203
vn -0.5944 -0.8042 0.0000
vn 0.0000 0.6303 -0.7764
vn 0.0000 -0.6303 -0.7764
vn -0.5490 -0.6303 -0.5490
vn -0.5490 0.6303 -0.5490
vn 0.5490 0.6303 -0.5490
vn 0.5490 -0.6303 -0.5490
vn 0.7764 0.6303 0.0000
vn 0.7764 -0.6303 0.0000
vn 0.5490 0.6303 0.5490
vn 0.5490 -0.6303 0.5490
vn -0.0000 0.6303 0.7764
vn -0.0000 -0.6303 0.7764
vn -0.5490 0.6303 0.5490
vn -0.5490 -0.6303 0.5490
vn -0.7764 0.6303 0.0000
vn -0.7764 -0.6303 0.0000
vn -0.0000 0.6303 -0.7764
vn 0.7763 -0.6303 -0.0000
vn 0.5489 -0.6303 0.5490
vn -0.7708 0.3166 -0.5528
vn -0.5325 0.6965 -0.4809
vn -0.9360 0.3166 -0.1541
vn -0.7166 0.6965 -0.0365
vn -0.5528 0.3166 0.7708
vn -0.4809 0.6965 0.5325
vn -0.1541 0.3166 0.9360
vn -0.0365 0.6965 0.7166
vn 0.7708 0.3166 0.5528
vn 0.5325 0.6965 0.4809
vn 0.9360 0.3166 0.1541
vn 0.7166 0.6965 0.0365
vn 0.5528 0.3166 -0.7708
vn 0.4809 0.6965 -0.5325
vn 0.1541 0.3166 -0.9360
vn 0.0365 0.6965 -0.7166
vn -0.6987 -0.4716 -0.5380
vn -0.8178 -0.0627 -0.5721
vn -0.8744 -0.4716 -0.1136
vn -0.9828 -0.0627 -0.1738
vn -0.5380 -0.4716 0.6987
vn -0.5721 -0.0627 0.8178
vn -0.1136 -0.4716 0.8744
vn -0.1738 -0.0627 0.9828
vn 0.6987 -0.4716 0.5380
vn 0.8178 -0.0627 0.5721
vn 0.8744 -0.4716 0.1136
vn 0.9828 -0.0627 0.1738
vn 0.5380 -0.4716 -0.6987
vn 0.5721 -0.0627 -0.8178
vn 0.1136 -0.4716 -0.8744
vn 0.1738 -0.0627 -0.9828
# 166 vertex normals

vt 0.3553 0.8755 0.0000
vt 0.3110 0.9853 0.0000
vt 0.2463 0.9217 0.0000
vt 0.2455 0.8311 0.0000
vt 0.3091 0.7664 0.0000
vt 0.3997 0.7657 0.0000
vt 0.4644 0.8292 0.0000
vt 0.4651 0.9198 0.0000
vt 0.4016 0.9845 0.0000
vt 0.4414 0.7840 0.0000
vt 0.4742 0.7042 0.0000
vt 0.5897 0.7517 0.0000
vt 0.5230 0.8176 0.0000
vt 0.9774 0.5267 0.0000
vt 0.9987 0.5267 0.0000
vt 0.9987 0.5620 0.0000
vt 0.9774 0.5620 0.0000
vt 0.0000 0.1248 0.0000
vt 0.0863 0.1248 0.0000
vt 0.0863 0.2497 0.0000
vt 0.0103 0.2648 0.0000
vt 0.0000 0.5217 0.0000
vt 0.0296 0.5217 0.0000
vt 0.0296 0.5357 0.0000
vt 0.0000 0.5357 0.0000
vt 0.0544 0.3981 0.0000
vt 0.1342 0.3650 0.0000
vt 0.1820 0.4803 0.0000
vt 0.1176 0.5234 0.0000
vt 0.8837 0.4409 0.0000
vt 0.8934 0.4409 0.0000
vt 0.8934 0.4729 0.0000
vt 0.8837 0.4729 0.0000
vt 0.2095 0.6296 0.0000
vt 0.2704 0.5684 0.0000
vt 0.3588 0.6566 0.0000
vt 0.3158 0.7211 0.0000
vt 0.5337 0.2770 0.0000
vt 0.5382 0.2770 0.0000
vt 0.5382 0.3083 0.0000
vt 0.5337 0.3083 0.0000
vt 0.5123 0.6116 0.0000
vt 0.6093 0.6515 0.0000
vt 0.5396 0.2729 0.0000
vt 0.5596 0.2729 0.0000
vt 0.5596 0.3090 0.0000
vt 0.5396 0.3090 0.0000
vt 0.1864 0.1248 0.0000
vt 0.1864 0.2297 0.0000
vt 0.5140 0.1148 0.0000
vt 0.5444 0.1148 0.0000
vt 0.5444 0.1268 0.0000
vt 0.5140 0.1268 0.0000
vt 0.2266 0.3266 0.0000
vt 0.2668 0.4235 0.0000
vt 0.8837 0.3081 0.0000
vt 0.9097 0.3081 0.0000
vt 0.9097 0.3470 0.0000
vt 0.8837 0.3470 0.0000
vt 0.3411 0.4976 0.0000
vt 0.4154 0.5717 0.0000
vt 0.5208 0.0000 0.0000
vt 0.5463 0.0000 0.0000
vt 0.5463 0.0346 0.0000
vt 0.5208 0.0346 0.0000
vt 0.9503 0.7996 0.0000
vt 0.9122 0.8157 0.0000
vt 0.9120 0.7841 0.0000
vt 0.9348 0.8379 0.0000
vt 0.9664 0.8376 0.0000
vt 0.9886 0.8151 0.0000
vt 0.9883 0.7834 0.0000
vt 0.9658 0.7613 0.0000
vt 0.9341 0.7615 0.0000
vt 0.3997 0.1247 0.0000
vt 0.3238 0.1038 0.0000
vt 0.3682 0.0306 0.0000
vt 0.4218 0.0882 0.0000
vt 0.4019 0.1611 0.0000
vt 0.3276 0.1770 0.0000
vt 0.4214 0.1976 0.0000
vt 0.3663 0.2504 0.0000
vt 0.4529 0.2136 0.0000
vt 0.4291 0.2839 0.0000
vt 0.4938 0.2152 0.0000
vt 0.5106 0.2885 0.0000
vt 0.4348 0.0000 0.0000
vt 0.4551 0.0735 0.0000
vt 1.0000 0.0767 0.0000
vt 1.0000 0.1150 0.0000
vt 0.8837 0.1150 0.0000
vt 0.8837 0.0767 0.0000
vt 1.0000 0.1534 0.0000
vt 0.8837 0.1534 0.0000
vt 1.0000 0.1917 0.0000
vt 0.8837 0.1917 0.0000
vt 1.0000 0.2301 0.0000
vt 0.8837 0.2301 0.0000
vt 1.0000 0.2684 0.0000
vt 0.8837 0.2684 0.0000
vt 1.0000 0.3068 0.0000
vt 0.8837 0.3068 0.0000
vt 1.0000 0.0000 0.0000
vt 1.0000 0.0383 0.0000
vt 0.8837 0.0383 0.0000
vt 0.8837 0.0000 0.0000
vt 0.8077 0.8644 0.0000
vt 0.8476 0.8640 0.0000
vt 0.8436 0.8740 0.0000
vt 0.8120 0.8743 0.0000
vt 0.8761 0.8920 0.0000
vt 0.8662 0.8962 0.0000
vt 0.8764 0.9319 0.0000
vt 0.8664 0.9278 0.0000
vt 0.8485 0.9603 0.0000
vt 0.8443 0.9504 0.0000
vt 0.8086 0.9607 0.0000
vt 0.8126 0.9507 0.0000
vt 0.7801 0.9327 0.0000
vt 0.7901 0.9285 0.0000
vt 0.7798 0.8928 0.0000
vt 0.7898 0.8968 0.0000
vt 0.5283 0.2116 0.0000
vt 0.5703 0.2519 0.0000
vt 0.5235 0.1970 0.0000
vt 0.4999 0.0573 0.0000
vt 0.4969 0.0741 0.0000
vt 0.5184 0.0001 0.0000
vt 0.7598 0.8626 0.0000
vt 0.7294 0.8626 0.0000
vt 0.7294 0.0000 0.0000
vt 0.7598 0.0000 0.0000
vt 0.6989 0.8626 0.0000
vt 0.6989 0.0000 0.0000
vt 0.6685 0.8626 0.0000
vt 0.6685 0.0000 0.0000
vt 0.6381 0.8626 0.0000
vt 0.6381 0.0000 0.0000
vt 0.8814 0.8626 0.0000
vt 0.8510 0.8626 0.0000
vt 0.8510 0.0000 0.0000
vt 0.8814 0.0000 0.0000
vt 0.8206 0.8626 0.0000
vt 0.8206 0.0000 0.0000
vt 0.7902 0.8626 0.0000
vt 0.7902 0.0000 0.0000
vt 0.0608 0.9422 0.0000
vt 0.0304 0.9422 0.0000
vt 0.0304 0.6620 0.0000
vt 0.0608 0.6620 0.0000
vt 0.0000 0.9422 0.0000
vt 0.0000 0.6620 0.0000
vt 0.2433 0.9422 0.0000
vt 0.2129 0.9422 0.0000
vt 0.2129 0.6620 0.0000
vt 0.2433 0.6620 0.0000
vt 0.1824 0.9422 0.0000
vt 0.1824 0.6620 0.0000
vt 0.1520 0.9422 0.0000
vt 0.1520 0.6620 0.0000
vt 0.1216 0.9422 0.0000
vt 0.1216 0.6620 0.0000
vt 0.0912 0.9422 0.0000
vt 0.0912 0.6620 0.0000
vt 0.6615 0.9000 0.0000
vt 0.6615 0.8640 0.0000
vt 0.7005 0.8640 0.0000
vt 0.7005 0.9000 0.0000
vt 0.6226 0.9000 0.0000
vt 0.6226 0.8640 0.0000
vt 0.5836 0.9000 0.0000
vt 0.5836 0.8640 0.0000
vt 0.5447 0.9000 0.0000
vt 0.5447 0.8640 0.0000
vt 0.5057 0.9000 0.0000
vt 0.5057 0.8640 0.0000
vt 0.4668 0.9000 0.0000
vt 0.4668 0.8640 0.0000
vt 0.7394 0.9000 0.0000
vt 0.7394 0.8640 0.0000
vt 0.7784 0.8640 0.0000
vt 0.7784 0.9000 0.0000
vt 0.7394 0.9340 0.0000
vt 0.7394 0.9014 0.0000
vt 0.7784 0.9014 0.0000
vt 0.7784 0.9340 0.0000
vt 0.7005 0.9340 0.0000
vt 0.7005 0.9014 0.0000
vt 0.6615 0.9340 0.0000
vt 0.6615 0.9014 0.0000
vt 0.6226 0.9340 0.0000
vt 0.6226 0.9014 0.0000
vt 0.5836 0.9340 0.0000
vt 0.5836 0.9014 0.0000
vt 0.5447 0.9340 0.0000
vt 0.5447 0.9014 0.0000
vt 0.5057 0.9340 0.0000
vt 0.5057 0.9014 0.0000
vt 0.4668 0.9340 0.0000
vt 0.4668 0.9014 0.0000
vt 0.9658 0.8605 0.0000
vt 0.9341 0.8608 0.0000
vt 0.9296 0.8501 0.0000
vt 0.9701 0.8497 0.0000
vt 0.9120 0.8833 0.0000
vt 0.9012 0.8790 0.0000
vt 0.9122 0.9150 0.0000
vt 0.9016 0.9195 0.0000
vt 0.9348 0.9371 0.0000
vt 0.9305 0.9479 0.0000
vt 0.9664 0.9369 0.0000
vt 0.9710 0.9476 0.0000
vt 0.9886 0.9143 0.0000
vt 0.9994 0.9187 0.0000
vt 0.9883 0.8827 0.0000
vt 0.9990 0.8781 0.0000
vt 0.9166 0.6625 0.0000
vt 0.8944 0.6850 0.0000
vt 0.8837 0.6807 0.0000
vt 0.9121 0.6518 0.0000
vt 0.8947 0.7167 0.0000
vt 0.8840 0.7212 0.0000
vt 0.9173 0.7388 0.0000
vt 0.9129 0.7496 0.0000
vt 0.9489 0.7386 0.0000
vt 0.9534 0.7493 0.0000
vt 0.9711 0.7160 0.0000
vt 0.9818 0.7204 0.0000
vt 0.9708 0.6844 0.0000
vt 0.9815 0.6798 0.0000
vt 0.9482 0.6622 0.0000
vt 0.9526 0.6514 0.0000
vt 0.9016 0.8203 0.0000
vt 0.9012 0.7798 0.0000
vt 0.9305 0.8487 0.0000
vt 0.9710 0.8483 0.0000
vt 0.9994 0.8194 0.0000
vt 0.9990 0.7789 0.0000
vt 0.9701 0.7505 0.0000
vt 0.9296 0.7509 0.0000
vt 0.4252 0.1465 0.0000
vt 0.4478 0.1687 0.0000
vt 0.4434 0.1794 0.0000
vt 0.4145 0.1510 0.0000
vt 0.4794 0.1684 0.0000
vt 0.4839 0.1791 0.0000
vt 0.5016 0.1458 0.0000
vt 0.5123 0.1502 0.0000
vt 0.5013 0.1142 0.0000
vt 0.5120 0.1097 0.0000
vt 0.4787 0.0920 0.0000
vt 0.4831 0.0813 0.0000
vt 0.4471 0.0923 0.0000
vt 0.4426 0.0816 0.0000
vt 0.4249 0.1149 0.0000
vt 0.4142 0.1105 0.0000
vt 0.5638 0.4867 0.0000
vt 0.6359 0.5164 0.0000
vt 0.1864 0.0199 0.0000
vt 0.3215 0.0469 0.0000
vt 0.3215 0.1248 0.0000
vt 0.3215 0.2028 0.0000
vt 0.3514 0.2749 0.0000
vt 0.3812 0.3469 0.0000
vt 0.4365 0.4019 0.0000
vt 0.4917 0.4570 0.0000
vt 0.0000 0.0366 0.0000
vt 0.0863 0.0000 0.0000
vt 0.0604 0.0389 0.0000
vt 0.0259 0.0535 0.0000
vt 0.0604 0.0969 0.0000
vt 0.0259 0.0969 0.0000
vt 0.0773 0.2955 0.0000
vt 0.0510 0.3222 0.0000
vt 0.0995 0.3491 0.0000
vt 0.0677 0.3624 0.0000
vt 0.1912 0.5261 0.0000
vt 0.1772 0.5608 0.0000
vt 0.2323 0.5671 0.0000
vt 0.2080 0.5915 0.0000
vt 0.3849 0.6954 0.0000
vt 0.3853 0.7328 0.0000
vt 0.4385 0.7175 0.0000
vt 0.4254 0.7494 0.0000
vt 0.1577 0.0417 0.0000
vt 0.1150 0.0332 0.0000
vt 0.1577 0.0973 0.0000
vt 0.1150 0.0973 0.0000
vt 0.1683 0.2609 0.0000
vt 0.1255 0.2694 0.0000
vt 0.1896 0.3122 0.0000
vt 0.1501 0.3286 0.0000
vt 0.2620 0.4592 0.0000
vt 0.2258 0.4835 0.0000
vt 0.3014 0.4984 0.0000
vt 0.2712 0.5287 0.0000
vt 0.4246 0.6065 0.0000
vt 0.4004 0.6428 0.0000
vt 0.4760 0.6276 0.0000
vt 0.4597 0.6672 0.0000
vt 0.9640 0.6501 0.0000
vt 0.9302 0.6501 0.0000
vt 0.9302 0.5620 0.0000
vt 0.9640 0.5620 0.0000
vt 0.9133 0.6501 0.0000
vt 0.9133 0.5620 0.0000
vt 0.9987 0.6501 0.0000
vt 0.9774 0.6501 0.0000
vt 0.1135 0.5872 0.0000
vt 0.1135 0.6153 0.0000
vt 0.0296 0.6153 0.0000
vt 0.0296 0.5872 0.0000
vt 0.1135 0.5217 0.0000
vt 0.1135 0.5357 0.0000
vt 0.1135 0.5606 0.0000
vt 0.0296 0.5606 0.0000
vt 0.9517 0.5606 0.0000
vt 0.9234 0.5606 0.0000
vt 0.9234 0.4729 0.0000
vt 0.9517 0.4729 0.0000
vt 0.8934 0.5606 0.0000
vt 0.8837 0.5606 0.0000
vt 0.9744 0.5606 0.0000
vt 0.9744 0.4729 0.0000
vt 0.5125 0.3888 0.0000
vt 0.4908 0.3888 0.0000
vt 0.4908 0.3083 0.0000
vt 0.5125 0.3083 0.0000
vt 0.4371 0.3888 0.0000
vt 0.4371 0.3083 0.0000
vt 0.5382 0.3888 0.0000
vt 0.5337 0.3888 0.0000
vt 0.6124 0.4005 0.0000
vt 0.5874 0.4005 0.0000
vt 0.5874 0.3090 0.0000
vt 0.6124 0.3090 0.0000
vt 0.5596 0.4005 0.0000
vt 0.5396 0.4005 0.0000
vt 0.6366 0.4005 0.0000
vt 0.6366 0.3090 0.0000
vt 0.6296 0.1856 0.0000
vt 0.6296 0.2231 0.0000
vt 0.5444 0.2231 0.0000
vt 0.5444 0.1856 0.0000
vt 0.6296 0.1148 0.0000
vt 0.6296 0.1268 0.0000
vt 0.6296 0.1536 0.0000
vt 0.5444 0.1536 0.0000
vt 0.9710 0.4395 0.0000
vt 0.9471 0.4395 0.0000
vt 0.9471 0.3470 0.0000
vt 0.9710 0.3470 0.0000
vt 0.9097 0.4395 0.0000
vt 0.8837 0.4395 0.0000
vt 0.9763 0.4395 0.0000
vt 0.9763 0.3470 0.0000
vt 0.6055 0.1134 0.0000
vt 0.5785 0.1134 0.0000
vt 0.5785 0.0346 0.0000
vt 0.6055 0.0346 0.0000
vt 0.5463 0.1134 0.0000
vt 0.5208 0.1134 0.0000
vt 0.6312 0.1134 0.0000
vt 0.6312 0.0346 0.0000
# 364 texture coords

o Boule
g Boule
usemtl wire_197224162
s 1
f 1/1/1 2/2/2 3/3/3 
f 1/1/1 3/3/3 4/4/4 
f 1/1/1 4/4/4 5/5/5 
f 1/1/1 5/5/5 6/6/6 
f 1/1/1 6/6/6 7/7/7 
f 1/1/1 7/7/7 8/8/8 
f 1/1/1 8/8/8 9/9/9 
f 1/1/1 9/9/9 2/2/2 
f 2/10/2 10/11/10 11/12/11 3/13/3 
f 12/14/12 13/15/13 14/16/14 15/17/15 
f 4/18/4 16/19/16 17/20/17 5/21/5 
f 18/22/18 19/23/19 20/24/20 21/25/21 
f 6/26/6 22/27/22 23/28/23 7/29/7 
f 24/30/24 25/31/25 26/32/26 27/33/27 
f 8/34/8 28/35/28 29/36/29 9/37/9 
f 30/38/30 31/39/31 32/40/32 33/41/33 
f 10/11/10 34/42/34 35/43/35 11/12/11 
f 36/44/36 37/45/37 38/46/38 39/47/39 
f 16/19/16 40/48/40 41/49/41 17/20/17 
f 42/50/42 43/51/43 44/52/44 45/53/45 
f 22/27/22 46/54/46 47/55/47 23/28/23 
f 48/56/48 49/57/49 50/58/50 51/59/51 
f 28/35/28 52/60/52 53/61/53 29/36/29 
f 54/62/54 55/63/55 56/64/56 57/65/57 
f 58/66/58 59/67/59 60/68/60 
f 58/66/58 61/69/61 59/67/59 
f 58/66/58 62/70/62 61/69/61 
f 58/66/58 63/71/63 62/70/62 
f 58/66/58 64/72/64 63/71/63 
f 58/66/58 65/73/65 64/72/64 
f 58/66/58 66/74/66 65/73/65 
f 58/66/58 60/68/60 66/74/66 
f 67/75/67 68/76/68 69/77/69 70/78/70 
f 71/79/71 72/80/72 68/76/68 67/75/67 
f 73/81/73 74/82/74 72/80/72 71/79/71 
f 75/83/75 76/84/76 74/82/74 73/81/73 
f 77/85/77 78/86/78 76/84/76 75/83/75 
f 70/78/70 69/77/69 79/87/79 80/88/80 
s off
f 67/89/67 70/90/70 81/91/81 82/92/82 
f 70/90/70 80/93/80 83/94/83 81/91/81 
f 80/93/80 84/95/84 85/96/85 83/94/83 
f 84/95/84 77/97/77 86/98/86 85/96/85 
f 77/97/77 75/99/75 87/100/87 86/98/86 
f 75/99/75 73/101/73 88/102/88 87/100/87 
f 73/103/73 71/104/71 89/105/89 88/106/88 
f 71/104/71 67/89/67 82/92/82 89/105/89 
f 82/107/82 81/108/81 90/109/90 91/110/91 
f 81/108/81 83/111/83 92/112/92 90/109/90 
f 83/111/83 85/113/85 93/114/93 92/112/92 
f 85/113/85 86/115/86 94/116/94 93/114/93 
f 86/115/86 87/117/87 95/118/95 94/116/94 
f 87/117/87 88/119/88 96/120/96 95/118/95 
f 88/119/88 89/121/89 97/122/97 96/120/96 
f 89/121/89 82/107/82 91/110/91 97/122/97 
s 1
f 98/123/98 99/124/99 78/86/78 77/85/77 84/125/84 
f 98/126/98 84/127/84 80/88/80 79/87/79 99/128/99 
s off
f 91/129/91 90/130/90 100/131/100 101/132/101 
f 90/130/90 92/133/92 102/134/102 100/131/100 
f 92/133/92 93/135/93 103/136/103 102/134/102 
f 93/135/93 94/137/94 104/138/104 103/136/103 
f 94/139/94 95/140/95 105/141/105 104/142/104 
f 95/140/95 96/143/96 106/144/106 105/141/105 
f 96/143/96 97/145/97 107/146/107 106/144/106 
f 97/145/97 91/129/91 101/132/101 107/146/107 
f 108/147/108 109/148/109 110/149/100 111/150/101 
f 109/148/109 112/151/110 113/152/102 110/149/100 
f 112/153/110 114/154/111 115/155/103 113/156/102 
f 114/154/111 116/157/112 117/158/104 115/155/103 
f 116/157/112 118/159/113 119/160/105 117/158/104 
f 118/159/113 120/161/114 121/162/106 119/160/105 
f 120/161/114 122/163/115 123/164/107 121/162/106 
f 122/163/115 108/147/108 111/150/101 123/164/107 
f 124/165/116 125/166/117 126/167/118 127/168/119 
f 128/169/120 129/170/121 125/166/117 124/165/116 
f 130/171/122 131/172/123 129/170/121 128/169/120 
f 132/173/124 133/174/125 131/172/123 130/171/122 
f 134/175/126 135/176/127 133/174/125 132/173/124 
f 136/177/128 137/178/129 135/176/127 134/175/126 
f 138/179/130 139/180/131 137/181/129 136/182/128 
f 127/168/119 126/167/118 139/180/131 138/179/130 
f 140/183/132 141/184/117 142/185/118 143/186/119 
f 144/187/120 145/188/121 141/184/117 140/183/132 
f 146/189/122 147/190/133 145/188/121 144/187/120 
f 148/191/124 149/192/134 147/190/133 146/189/122 
f 150/193/126 151/194/127 149/192/134 148/191/124 
f 152/195/128 153/196/129 151/194/127 150/193/126 
f 154/197/130 155/198/131 153/196/129 152/195/128 
f 143/199/119 142/200/118 155/198/131 154/197/130 
f 109/201/109 108/202/108 126/203/118 125/204/117 
f 108/202/108 122/205/115 139/206/131 126/203/118 
f 122/205/115 120/207/114 137/208/129 139/206/131 
f 120/207/114 118/209/113 135/210/127 137/208/129 
f 118/209/113 116/211/112 133/212/125 135/210/127 
f 116/211/112 114/213/111 131/214/123 133/212/125 
f 114/213/111 112/215/110 129/216/121 131/214/123 
f 112/215/110 109/201/109 125/204/117 129/216/121 
f 101/217/101 100/218/100 124/219/116 127/220/119 
f 100/218/100 102/221/102 128/222/120 124/219/116 
f 102/221/102 103/223/103 130/224/122 128/222/120 
f 103/223/103 104/225/104 132/226/124 130/224/122 
f 104/225/104 105/227/105 134/228/126 132/226/124 
f 105/227/105 106/229/106 136/230/128 134/228/126 
f 106/229/106 107/231/107 138/232/130 136/230/128 
f 107/231/107 101/217/101 127/220/119 138/232/130 
f 60/68/60 59/67/59 142/233/118 141/234/117 
f 59/67/59 61/69/61 155/235/131 142/233/118 
f 61/69/61 62/70/62 153/236/129 155/235/131 
f 62/70/62 63/71/63 151/237/127 153/236/129 
f 63/71/63 64/72/64 149/238/134 151/237/127 
f 64/72/64 65/73/65 147/239/133 149/238/134 
f 65/73/65 66/74/66 145/240/121 147/239/133 
f 66/74/66 60/68/60 141/234/117 145/240/121 
f 111/241/101 110/242/100 140/243/132 143/244/119 
f 110/242/100 113/245/102 144/246/120 140/243/132 
f 113/245/102 115/247/103 146/248/122 144/246/120 
f 115/247/103 117/249/104 148/250/124 146/248/122 
f 117/249/104 119/251/105 150/252/126 148/250/124 
f 119/251/105 121/253/106 152/254/128 150/252/126 
f 121/253/106 123/255/107 154/256/130 152/254/128 
f 123/255/107 111/241/101 143/244/119 154/256/130 
s 1
f 34/42/34 69/257/69 68/258/68 35/43/35 
f 35/259/35 68/260/68 72/261/72 40/48/40 
f 40/48/40 72/261/72 74/262/74 41/49/41 
f 41/49/41 74/262/74 76/263/76 46/54/46 
f 46/54/46 76/263/76 78/264/78 47/55/47 
f 47/55/47 78/264/78 99/265/99 52/60/52 
f 52/60/52 99/265/99 79/266/79 53/61/53 
f 53/61/53 79/266/79 69/257/69 34/42/34 
s off
f 3/267/3 11/268/11 156/269/135 157/270/136 
f 11/268/11 16/19/16 158/271/137 156/269/135 
f 16/19/16 4/18/4 159/272/138 158/271/137 
f 4/18/4 3/267/3 157/270/136 159/272/138 
f 5/21/5 17/20/17 160/273/139 161/274/140 
f 17/20/17 22/27/22 162/275/141 160/273/139 
f 22/27/22 6/26/6 163/276/142 162/275/141 
f 6/26/6 5/21/5 161/274/140 163/276/142 
f 7/29/7 23/28/23 164/277/143 165/278/144 
f 23/28/23 28/35/28 166/279/145 164/277/143 
f 28/35/28 8/34/8 167/280/146 166/279/145 
f 8/34/8 7/29/7 165/278/144 167/280/146 
f 9/37/9 29/36/29 168/281/147 169/282/148 
f 29/36/29 10/11/10 170/283/149 168/281/147 
f 10/11/10 2/10/2 171/284/150 170/283/149 
f 2/10/2 9/37/9 169/282/148 171/284/150 
f 11/268/11 35/259/35 172/285/151 173/286/152 
f 35/259/35 40/48/40 174/287/153 172/285/151 
f 40/48/40 16/19/16 175/288/154 174/287/153 
f 16/19/16 11/268/11 173/286/152 175/288/154 
f 17/20/17 41/49/41 176/289/155 177/290/156 
f 41/49/41 46/54/46 178/291/157 176/289/155 
f 46/54/46 22/27/22 179/292/158 178/291/157 
f 22/27/22 17/20/17 177/290/156 179/292/158 
f 23/28/23 47/55/47 180/293/159 181/294/160 
f 47/55/47 52/60/52 182/295/161 180/293/159 
f 52/60/52 28/35/28 183/296/162 182/295/161 
f 28/35/28 23/28/23 181/294/160 183/296/162 
f 29/36/29 53/61/53 184/297/163 185/298/164 
f 53/61/53 34/42/34 186/299/165 184/297/163 
f 34/42/34 10/11/10 187/300/166 186/299/165 
f 10/11/10 29/36/29 185/298/164 187/300/166 
f 157/301/136 156/302/135 13/303/13 12/304/12 
f 156/302/135 158/305/137 14/306/14 13/303/13 
f 158/307/137 159/308/138 15/17/15 14/16/14 
f 159/308/138 157/301/136 12/304/12 15/17/15 
f 161/309/140 160/310/139 19/311/19 18/312/18 
f 160/313/139 162/314/141 20/24/20 19/23/19 
f 162/314/141 163/315/142 21/316/21 20/24/20 
f 163/315/142 161/309/140 18/312/18 21/316/21 
f 165/317/144 164/318/143 25/319/25 24/320/24 
f 164/318/143 166/321/145 26/32/26 25/319/25 
f 166/321/145 167/322/146 27/33/27 26/32/26 
f 167/323/146 165/317/144 24/320/24 27/324/27 
f 169/325/148 168/326/147 31/327/31 30/328/30 
f 168/326/147 170/329/149 32/330/32 31/327/31 
f 170/331/149 171/332/150 33/41/33 32/40/32 
f 171/332/150 169/325/148 30/328/30 33/41/33 
f 173/333/152 172/334/151 37/335/37 36/336/36 
f 172/334/151 174/337/153 38/46/38 37/335/37 
f 174/337/153 175/338/154 39/47/39 38/46/38 
f 175/339/154 173/333/152 36/336/36 39/340/39 
f 177/341/156 176/342/155 43/343/43 42/344/42 
f 176/345/155 178/346/157 44/52/44 43/51/43 
f 178/346/157 179/347/158 45/348/45 44/52/44 
f 179/347/158 177/341/156 42/344/42 45/348/45 
f 181/349/160 180/350/159 49/351/49 48/352/48 
f 180/350/159 182/353/161 50/58/50 49/351/49 
f 182/353/161 183/354/162 51/59/51 50/58/50 
f 183/355/162 181/349/160 48/352/48 51/356/51 
f 185/357/164 184/358/163 55/359/55 54/360/54 
f 184/358/163 186/361/165 56/64/56 55/359/55 
f 186/361/165 187/362/166 57/65/57 56/64/56 
f 187/363/166 185/357/164 54/360/54 57/364/57 
# 176 polygons - 16 triangles

